<svg width="39" height="34" viewBox="0 0 39 34" fill="none" xmlns="http://www.w3.org/2000/svg">
<path d="M10.75 11.2308V8.92308C10.75 7.08696 11.6719 5.32605 13.3128 4.02772C14.9538 2.72939 17.1794 2 19.5 2C21.8206 2 24.0462 2.72939 25.6872 4.02772C27.3281 5.32605 28.25 7.08696 28.25 8.92308V11.2308M3.45833 11.2308C3.07156 11.2308 2.70063 11.3523 2.42714 11.5687C2.15365 11.7851 2 12.0786 2 12.3846V27.9615C2 30.1423 4.34792 32 7.10417 32H31.8958C34.6521 32 37 30.2325 37 28.0517V12.3846C37 12.0786 36.8464 11.7851 36.5729 11.5687C36.2994 11.3523 35.9284 11.2308 35.5417 11.2308H3.45833Z" stroke="#36472B" stroke-width="2.5625" stroke-linecap="round" stroke-linejoin="round"/>
</svg>
