<svg width="50" height="50" viewBox="0 0 50 50" fill="none" xmlns="http://www.w3.org/2000/svg">
<rect width="50" height="50" rx="10" fill="#E8E8E8"/>
<path d="M15.1107 22.5234C13.3643 22.5234 13 22.8663 13 24.5074V27.4841C13 29.127 13.3643 29.4681 15.1107 29.4681H19.3304V41.3734C19.3304 43.0163 19.6964 43.3574 21.4411 43.3574H25.6625C27.4089 43.3574 27.7732 43.0145 27.7732 41.3734V29.4681H32.5125C33.8357 29.4681 34.1768 29.227 34.5411 28.0288L35.4464 25.0538C36.0696 23.002 35.6839 22.5234 33.4161 22.5234H27.7732V17.5645C27.7732 16.4681 28.7179 15.5788 29.8821 15.5788H35.8893C37.6357 15.5788 38 15.2377 38 13.5966V9.62521C38 7.98414 37.6357 7.64307 35.8893 7.64307H29.8821C24.0554 7.64307 19.3304 12.0841 19.3304 17.5645V22.5234H15.1107Z" stroke="#36472B" stroke-width="3" stroke-linecap="round" stroke-linejoin="round"/>
</svg>
