<svg width="50" height="50" viewBox="0 0 50 50" fill="none" xmlns="http://www.w3.org/2000/svg">
<rect width="50" height="50" rx="10" fill="#E8E8E8"/>
<path d="M18.15 8H32.85C38.45 8 43 12.55 43 18.15V32.85C43 35.5419 41.9306 38.1236 40.0271 40.0271C38.1236 41.9306 35.5419 43 32.85 43H18.15C12.55 43 8 38.45 8 32.85V18.15C8 15.4581 9.06937 12.8764 10.9729 10.9729C12.8764 9.06937 15.4581 8 18.15 8ZM17.8 11.5C16.1291 11.5 14.5267 12.1637 13.3452 13.3452C12.1637 14.5267 11.5 16.1291 11.5 17.8V33.2C11.5 36.6825 14.3175 39.5 17.8 39.5H33.2C34.8709 39.5 36.4733 38.8363 37.6548 37.6548C38.8363 36.4733 39.5 34.8709 39.5 33.2V17.8C39.5 14.3175 36.6825 11.5 33.2 11.5H17.8ZM34.6875 14.125C35.2677 14.125 35.8241 14.3555 36.2343 14.7657C36.6445 15.1759 36.875 15.7323 36.875 16.3125C36.875 16.8927 36.6445 17.4491 36.2343 17.8593C35.8241 18.2695 35.2677 18.5 34.6875 18.5C34.1073 18.5 33.5509 18.2695 33.1407 17.8593C32.7305 17.4491 32.5 16.8927 32.5 16.3125C32.5 15.7323 32.7305 15.1759 33.1407 14.7657C33.5509 14.3555 34.1073 14.125 34.6875 14.125ZM25.5 16.75C27.8206 16.75 30.0462 17.6719 31.6872 19.3128C33.3281 20.9538 34.25 23.1794 34.25 25.5C34.25 27.8206 33.3281 30.0462 31.6872 31.6872C30.0462 33.3281 27.8206 34.25 25.5 34.25C23.1794 34.25 20.9538 33.3281 19.3128 31.6872C17.6719 30.0462 16.75 27.8206 16.75 25.5C16.75 23.1794 17.6719 20.9538 19.3128 19.3128C20.9538 17.6719 23.1794 16.75 25.5 16.75ZM25.5 20.25C24.1076 20.25 22.7723 20.8031 21.7877 21.7877C20.8031 22.7723 20.25 24.1076 20.25 25.5C20.25 26.8924 20.8031 28.2277 21.7877 29.2123C22.7723 30.1969 24.1076 30.75 25.5 30.75C26.8924 30.75 28.2277 30.1969 29.2123 29.2123C30.1969 28.2277 30.75 26.8924 30.75 25.5C30.75 24.1076 30.1969 22.7723 29.2123 21.7877C28.2277 20.8031 26.8924 20.25 25.5 20.25Z" fill="#36472B"/>
</svg>
