<svg width="50" height="50" viewBox="0 0 50 50" fill="none" xmlns="http://www.w3.org/2000/svg">
<rect width="50" height="50" rx="10" fill="#E8E8E8"/>
<path d="M43 25.3944C43 25.3115 43 25.2172 42.9961 25.1079C42.9922 24.8025 42.9844 24.4594 42.9766 24.0936C42.9453 23.0417 42.8906 21.9935 42.8047 21.0057C42.6875 19.6446 42.5156 18.5097 42.2812 17.6576C42.0339 16.7683 41.5491 15.9573 40.8753 15.3056C40.2014 14.6539 39.3622 14.1843 38.4414 13.9438C37.3359 13.6572 35.1719 13.48 32.125 13.3707C30.6758 13.3179 29.125 13.2839 27.5742 13.2651C27.0312 13.2575 26.5273 13.2538 26.0742 13.25H24.9258C24.4727 13.2538 23.9688 13.2575 23.4258 13.2651C21.875 13.2839 20.3242 13.3179 18.875 13.3707C15.8281 13.4838 13.6602 13.661 12.5586 13.9438C11.6375 14.1837 10.7979 14.6531 10.124 15.3049C9.45007 15.9567 8.96547 16.768 8.71875 17.6576C8.48047 18.5097 8.3125 19.6446 8.19531 21.0057C8.10938 21.9935 8.05469 23.0417 8.02344 24.0936C8.01172 24.4594 8.00781 24.8025 8.00391 25.1079C8.00391 25.2172 8 25.3115 8 25.3944V25.6056C8 25.6885 8 25.7828 8.00391 25.8921C8.00781 26.1975 8.01562 26.5406 8.02344 26.9064C8.05469 27.9583 8.10938 29.0065 8.19531 29.9943C8.3125 31.3554 8.48438 32.4903 8.71875 33.3424C9.21875 35.1484 10.6875 36.5736 12.5586 37.0562C13.6602 37.3428 15.8281 37.52 18.875 37.6293C20.3242 37.6821 21.875 37.7161 23.4258 37.7349C23.9688 37.7425 24.4727 37.7462 24.9258 37.75H26.0742C26.5273 37.7462 27.0312 37.7425 27.5742 37.7349C29.125 37.7161 30.6758 37.6821 32.125 37.6293C35.1719 37.5162 37.3398 37.339 38.4414 37.0562C40.3125 36.5736 41.7812 35.1522 42.2812 33.3424C42.5195 32.4903 42.6875 31.3554 42.8047 29.9943C42.8906 29.0065 42.9453 27.9583 42.9766 26.9064C42.9883 26.5406 42.9922 26.1975 42.9961 25.8921C42.9961 25.7828 43 25.6885 43 25.6056V25.3944ZM40.1875 25.5905C40.1875 25.6697 40.1875 25.7564 40.1836 25.8582C40.1797 26.1523 40.1719 26.4765 40.1641 26.8272C40.1367 27.8301 40.082 28.833 40 29.7643C39.8945 30.9784 39.7461 31.9738 39.5625 32.6411C39.3203 33.5121 38.6094 34.2021 37.7109 34.4321C36.8906 34.6432 34.8242 34.8129 32.0156 34.9147C30.5938 34.9674 29.0625 35.0014 27.5352 35.0202C27 35.0278 26.5039 35.0315 26.0586 35.0315H24.9414L23.4648 35.0202C21.9375 35.0014 20.4102 34.9674 18.9844 34.9147C16.1758 34.8091 14.1055 34.6432 13.2891 34.4321C12.3906 34.1983 11.6797 33.5121 11.4375 32.6411C11.2539 31.9738 11.1055 30.9784 11 29.7643C10.918 28.833 10.8672 27.8301 10.8359 26.8272C10.8242 26.4765 10.8203 26.1485 10.8164 25.8582C10.8164 25.7564 10.8125 25.6659 10.8125 25.5905V25.4095C10.8125 25.3303 10.8125 25.2436 10.8164 25.1418C10.8203 24.8477 10.8281 24.5235 10.8359 24.1728C10.8633 23.1699 10.918 22.167 11 21.2357C11.1055 20.0216 11.2539 19.0262 11.4375 18.3589C11.6797 17.4879 12.3906 16.7979 13.2891 16.5679C14.1094 16.3568 16.1758 16.1871 18.9844 16.0853C20.4063 16.0325 21.9375 15.9986 23.4648 15.9798C24 15.9722 24.4961 15.9685 24.9414 15.9685H26.0586L27.5352 15.9798C29.0625 15.9986 30.5898 16.0325 32.0156 16.0853C34.8242 16.1909 36.8945 16.3568 37.7109 16.5679C38.6094 16.8017 39.3203 17.4879 39.5625 18.3589C39.7461 19.0262 39.8945 20.0216 40 21.2357C40.082 22.167 40.1328 23.1699 40.1641 24.1728C40.1758 24.5235 40.1797 24.8515 40.1836 25.1418C40.1836 25.2436 40.1875 25.3341 40.1875 25.4095V25.5905ZM22.0234 30.5523L31.0859 25.4623L22.0234 20.4477V30.5523Z" fill="#36472B"/>
</svg>
