<svg width="35" height="35" viewBox="0 0 35 35" fill="none" xmlns="http://www.w3.org/2000/svg">
<path d="M15.7064 26.6875C13.5345 26.6875 11.4114 26.0435 9.6055 24.8368C7.79964 23.6302 6.39215 21.9152 5.561 19.9086C4.72986 17.902 4.51239 15.6941 4.9361 13.5639C5.35982 11.4338 6.40568 9.47709 7.94144 7.94133C9.47719 6.40558 11.4339 5.35971 13.564 4.936C15.6942 4.51229 17.9021 4.72975 19.9087 5.5609C21.9153 6.39204 23.6303 7.79954 24.8369 9.60539C26.0436 11.4113 26.6876 13.5344 26.6876 15.7063C26.6876 17.1483 26.4036 18.5763 25.8517 19.9086C25.2999 21.2409 24.491 22.4515 23.4713 23.4712C22.4516 24.4909 21.241 25.2997 19.9087 25.8516C18.5764 26.4035 17.1484 26.6875 15.7064 26.6875ZM15.7064 6.92708C13.9758 6.92708 12.284 7.44026 10.8451 8.40172C9.40618 9.36319 8.28467 10.7298 7.62241 12.3286C6.96014 13.9275 6.78686 15.6868 7.12448 17.3841C7.4621 19.0815 8.29546 20.6406 9.51917 21.8643C10.7429 23.088 12.302 23.9213 13.9993 24.259C15.6966 24.5966 17.456 24.4233 19.0548 23.761C20.6537 23.0988 22.0203 21.9773 22.9817 20.5383C23.9432 19.0994 24.4564 17.4077 24.4564 15.6771C24.4564 13.3564 23.5345 11.1308 21.8935 9.4899C20.2526 7.84896 18.027 6.92708 15.7064 6.92708Z" fill="#36472B"/>
<path d="M29.798 31C29.6399 31.0007 29.4833 30.9699 29.3373 30.9093C29.1913 30.8487 29.0589 30.7596 28.9478 30.6471L22.3229 24.023C22.1104 23.795 21.9947 23.4933 22.0002 23.1817C22.0057 22.8701 22.1319 22.5727 22.3524 22.3523C22.5728 22.1319 22.8702 22.0057 23.1818 22.0002C23.4935 21.9947 23.7952 22.1104 24.0232 22.3229L30.6482 28.947C30.8735 29.1725 31 29.4783 31 29.7971C31 30.1158 30.8735 30.4216 30.6482 30.6471C30.5371 30.7596 30.4047 30.8487 30.2587 30.9093C30.1127 30.9699 29.9561 31.0007 29.798 31Z" fill="#36472B"/>
</svg>
